<svg>
  <symbol id="yoga" enable-background="new 0 0 512 512"  viewBox="0 0 512 512"  xmlns="http://www.w3.org/2000/svg"><g><path d="m301 181c0-33.645-19.767-60-45-60s-45 26.355-45 60 19.767 60 45 60 45-26.355 45-60zm-45 30c-6.116 0-15-11.687-15-30s8.884-30 15-30 15 11.687 15 30-8.884 30-15 30z"/><path d="m136 362c-41.355 0-75 33.645-75 75s33.645 75 75 75c31.377 0 93.81-39.59 120-56.922 26.185 17.329 88.622 56.922 120 56.922 41.355 0 75-33.645 75-75s-33.645-75-75-75c-12.585 0-30.604 5.989-54.689 18.216-3.525-11.883-5.311-23.008-5.311-33.216 0-8.456 1.23-17.995 3.511-27.471 66.44-23.947 101.489-66.53 101.489-123.529 0-25.863-11.426-51.087-34.93-77.113-19.186-21.244-44.061-40.402-66.007-57.305-15.318-11.797-30.033-20.794-40.671-31.164-27.886-35.065-18.979-24.654-23.392-30.418-4.333 5.671 3.796-3.541-22.525 29.331-10.08 9.744-24.331 18.355-39.169 29.754-46.026 35.358-103.306 79.363-103.306 136.915 0 56.999 35.049 99.582 101.489 123.529 2.281 9.476 3.511 19.015 3.511 27.471 0 10.208-1.786 21.333-5.311 33.216-24.085-12.227-42.104-18.216-54.689-18.216zm0 120c-24.813 0-45-20.187-45-45s20.187-45 45-45c16.383 0 59.14 23.411 92.876 45-33.736 21.589-76.493 45-92.876 45zm285-45c0 24.813-20.187 45-45 45-16.383 0-59.14-23.411-92.876-45 33.736-21.589 76.493-45 92.876-45 24.813 0 45 20.187 45 45zm-207.282-327.935c16.945-29.578 40.102-57.636 42.196-59.714 3.695 3.756 25.676 30.578 42.368 59.714 26.173 45.685 35.81 82.621 27.134 104.004-7.518 18.534-30.873 27.931-69.416 27.931s-61.898-9.397-69.416-27.93c-8.676-21.384.961-58.32 27.134-104.005zm-92.718 86.935c0-31.547 27.63-61.049 58.503-86.939-17.297 33.205-26.044 62.033-26.044 85.992 0 56.219 46.309 75.947 102.541 75.947 56.208 0 102.541-19.713 102.541-75.947 0-23.718-8.566-52.205-25.519-84.989 31.121 25.899 57.978 54.387 57.978 85.936 0 78.778-91.148 97.353-96.005 100.111-.862 3.585-8.995 25.298-8.995 50.889 0 14.907 2.857 30.982 8.498 47.928-15.895 9.277-29.975 18.353-38.498 23.994-8.523-5.64-22.603-14.717-38.498-23.994 5.641-16.946 8.498-33.021 8.498-47.928 0-25.616-8.124-47.266-8.995-50.889-4.897-2.781-96.005-21.45-96.005-100.111z"/></g></symbol>
  <symbol id="slim-body" enable-background="new 0 0 512 512"  viewBox="0 0 512 512"  xmlns="http://www.w3.org/2000/svg"><g><path d="m241 160.58h30v30h-30z"/><path d="m373.653 85.646 17.403-85.646h-270.112l17.402 85.649c8.99 44.21-1.104 94.881-25.681 129.042-33.723 46.479-43.73 110.334-26.088 166.739l41.772 130.57h255.303l41.8-130.662c17.611-56.306 7.605-120.156-26.107-166.634-24.594-34.209-34.679-84.861-25.692-129.058zm-19.306-55.646-10.092 49.671c-9.486 46.646-1.39 97.691 21.098 137.435-70.317 30.183-148.389 30.183-218.706 0 22.488-39.744 30.584-90.789 21.098-137.432l-10.092-49.674zm42.501 342.29-35.097 109.71h-90.751v-114.112h-30v114.112h-90.751l-35.067-109.617c-13.566-43.37-7.749-91.939 14.966-129.757 40.338 18.098 83.095 27.15 125.853 27.15 42.759 0 85.517-9.052 125.856-27.151 22.706 37.785 28.534 86.365 14.991 129.665z"/><path d="m512 112.388h-63.323l18.426-24.076-23.825-18.233-43.857 57.309 43.857 57.308 23.825-18.232-18.426-24.076h63.323z"/><path d="m68.722 70.079-23.825 18.233 18.426 24.076h-63.323v30h63.323l-18.426 24.076 23.825 18.232 43.857-57.308z"/></g></symbol>
  <symbol id="hand" enable-background="new 0 0 512 512"  viewBox="0 0 512 512"  xmlns="http://www.w3.org/2000/svg"><g><path d="m376 80c-24.813 0-45 20.187-45 45v37.58c-4.695-1.665-9.742-2.58-15-2.58s-10.305.915-15 2.58v-117.58c0-24.813-20.187-45-45-45-20.718 0-38.211 14.075-43.421 33.164-5.133-2.041-10.727-3.164-16.579-3.164-24.813 0-45 20.187-45 45v126.509c-34.192 6.968-60 37.272-60 73.491v72c0 90.981 74.019 165 165 165s165-74.019 165-165v-222c0-24.813-20.187-45-45-45zm-60 110c8.271 0 15 6.729 15 15v60c0 8.271-6.729 15-15 15s-15-6.729-15-15v-60c0-8.271 6.729-15 15-15zm-60-160c8.271 0 15 6.729 15 15v155.363c-1.634-.235-3.302-.363-5-.363h-25v-155c0-8.271 6.729-15 15-15zm-60 30c8.271 0 15 6.729 15 15v125h-30v-125c0-8.271 6.729-15 15-15zm195 287c0 74.439-60.561 135-135 135s-135-60.561-135-135v-72c0-24.813 20.187-45 45-45h100c2.757 0 5 2.243 5 5 0 13.785-11.215 25-25 25h-80c-8.284 0-15 6.716-15 15v30c0 7.049 4.908 13.147 11.794 14.653 34.24 7.491 48.206 23.525 48.206 55.347 0 8.284 6.716 15 15 15s15-6.716 15-15c0-23.393-6.299-42.438-18.721-56.607-9.913-11.306-23.485-19.533-41.279-24.977v-3.416h65c10.377 0 20.09-2.891 28.382-7.907 6.743 16.359 22.854 27.907 41.618 27.907 24.813 0 45-20.187 45-45v-140c0-8.271 6.729-15 15-15s15 6.729 15 15z"/></g></symbol>
  <symbol version="1.1" id="bird" xmlns="http://www.w3.org/2000/svg" xmlns:xlink="http://www.w3.org/1999/xlink" x="0px" y="0px"
	 viewBox="0 0 512 512" style="enable-background:new 0 0 512 512;" xml:space="preserve">
<g>
	<g>
		<path d="M442,106c-5.52,0-10,4.48-10,10s4.48,10,10,10c5.52,0,10-4.48,10-10S447.52,106,442,106z"/>
	</g>
</g>
<g>
	<g>
		<path d="M256,346c-5.52,0-10,4.48-10,10c0,5.52,4.48,10,10,10c5.52,0,10-4.48,10-10C266,350.48,261.52,346,256,346z"/>
	</g>
</g>
<g>
	<g>
		<path d="M396,246c-5.523,0-10,4.477-10,10c0,49.626-40.374,90-90,90c-5.523,0-10,4.477-10,10s4.477,10,10,10
			c60.654,0,110-49.346,110-110C406,250.477,401.523,246,396,246z"/>
	</g>
</g>
<g>
	<g>
		<path d="M510.944,151.528L485.775,101.2C474.925,79.488,453.106,66,428.83,66c-19.785,0-38.692,9.384-50.669,25.125
			l-28.248,31.787c-7.529-10.706-18.573-18.648-31.296-22.277l-50.53-14.44C229.405,75.142,191.584,45.348,164.32,4.453
			c-2.444-3.666-7-5.3-11.218-4.024C148.885,1.706,146,5.594,146,10v53.89c0,25.045,3.751,49.743,11.161,73.574
			c-7.766,1.93-15.597,3.545-23.391,4.805C118.5,144.745,102.943,146,87.53,146H10c-3.635,0-6.984,1.973-8.746,5.153
			c-1.762,3.18-1.66,7.065,0.267,10.147l59.88,95.811c25.586,40.931,69.65,66.616,117.922,68.732L83.141,434.72
			c-14.82,15.153-9.668,40.513,9.908,48.663l52.953,26.153c0.235,0.116,0.474,0.223,0.717,0.32
			c15.315,6.12,32.773-1.31,38.954-16.608L222.625,406H296c84.561,0,156-68.691,156-150v-60c0-16.542,13.458-30,30-30h20
			c3.466,0,6.685-1.794,8.507-4.743C512.329,158.309,512.494,154.627,510.944,151.528z M166,39.801
			c27.558,32.281,61.653,55.641,96.592,65.625l50.535,14.441c9.855,2.812,18.161,9.587,22.925,18.644l-26.581,29.911l-46.696-28.017
			c-20.226-12.135-44.298-16.962-68.185-13.096c-7.506,1.217-12.297,2.744-18.192,4.653C169.497,109.92,166,87.067,166,63.89V39.801
			z M482,146c-27.57,0-50,22.43-50,50v60c0,70.467-62.28,130-136,130h-80c-28.491,0-54.101,15.829-66.834,41.308l-2.11,4.22
			c-2.47,4.94-0.467,10.946,4.473,13.416s10.947,0.466,13.416-4.473c1.164-1.55,8.746-24.079,34.945-32.074l-32.667,77.133
			c-0.027,0.063-0.053,0.125-0.078,0.189c-1.984,4.965-7.577,7.54-12.697,5.681c-56.29-27.79-52.898-26.157-53.574-26.426
			c-6.682-2.672-8.44-11.266-3.351-16.354c0.345-0.346,21.232-24.014,108.482-122.772c36.682-1.63,71.003-16.714,97.067-42.778
			c3.905-3.905,3.905-10.237,0-14.143c-3.905-3.906-10.237-3.905-14.143,0C244.416,313.443,191.575,304.994,185.69,306
			c-43.921,0-84.045-22.239-107.33-59.49l-6.394-10.231l7.219,2.817c45.784,17.864,102.954,11.499,142.362-14.775
			c4.595-3.064,5.836-9.272,2.773-13.868c-3.064-4.595-9.272-5.837-13.868-2.773c-34.614,23.079-84.445,28.216-123.998,12.784
			l-32.233-12.575L28.043,166H87.53c16.482,0,33.116-1.342,49.437-3.988c33.624-5.436,47.75-12.842,60.822-14.96
			c18.998-3.075,38.4,0.725,54.698,10.503l78.368,47.019c4.734,2.843,10.878,1.308,13.72-3.428
			c2.842-4.735,1.307-10.878-3.428-13.72l-14.224-8.534c70.257-79.077,66.502-74.788,66.978-75.421
			C402.105,92.531,415.163,86,428.83,86c16.649,0,31.614,9.25,39.056,24.143L485.818,146H482z"/>
	</g>
</g>
<g>
</g>
<g>
</g>
<g>
</g>
<g>
</g>
<g>
</g>
<g>
</g>
<g>
</g>
<g>
</g>
<g>
</g>
<g>
</g>
<g>
</g>
<g>
</g>
<g>
</g>
<g>
</g>
<g>
</g></symbol>
  <symbol version="1.1" id="energy" xmlns="http://www.w3.org/2000/svg" xmlns:xlink="http://www.w3.org/1999/xlink" x="0px" y="0px"
	 viewBox="0 0 512 512" style="enable-background:new 0 0 512 512;" xml:space="preserve">
<g>
	<g>
		<path d="M360.605,252.558c-1.201-5.068-4.922-9.141-9.858-10.781l-73.594-24.536l52.266-104.531
			c3.281-6.577,1.318-14.575-4.644-18.882c-5.991-4.292-14.194-3.647-19.38,1.567l-150,150c-3.677,3.677-5.186,8.994-3.999,14.048
			c1.201,5.068,4.922,9.141,9.858,10.781l73.594,24.536l-52.266,104.531c-3.281,6.577-1.318,14.575,4.644,18.882
			c5.971,4.279,14.158,3.653,19.38-1.567l150-150C360.283,262.929,361.792,257.612,360.605,252.558z"/>
	</g>
</g>
<g>
	<g>
		<path d="M256,0C179.87,0,107.961,35.406,60,92.529V76c0-8.291-6.709-15-15-15s-15,6.709-15,15v63.721c0,14.315,18.49,16.364,15,15
			c0.308,0,0.615-0.015,0.923-0.029l60-3.721c8.276-0.513,14.561-7.632,14.048-15.894c-0.513-8.262-7.734-14.487-15.894-14.048
			l-30.394,1.89C115.783,65.651,183.9,30,256,30c124.072,0,226,101.928,226,226c0,8.291,6.709,15,15,15c8.291,0,15-6.709,15-15
			C512,115.39,396.61,0,256,0z"/>
	</g>
</g>
<g>
	<g>
		<path d="M466.077,357.308l-60,3.721c-8.276,0.513-14.561,7.632-14.048,15.894s7.896,14.561,15.894,14.048l30.394-1.89
			C396.217,446.349,328.1,482,256,482C131.928,482,30,380.072,30,256c0-8.291-6.709-15-15-15s-15,6.709-15,15
			c0,140.61,115.39,256,256,256c76.13,0,148.039-35.406,196-92.529V436c0,8.291,6.709,15,15,15c8.291,0,15-6.709,15-15v-63.721
			C482,364.039,474.099,356.856,466.077,357.308z"/>
	</g>
</g>
<g>
</g>
<g>
</g>
<g>
</g>
<g>
</g>
<g>
</g>
<g>
</g>
<g>
</g>
<g>
</g>
<g>
</g>
<g>
</g>
<g>
</g>
<g>
</g>
<g>
</g>
<g>
</g>
<g>
</g></symbol>
<symbol id="time" xmlns='http://www.w3.org/2000/svg' class='ionicon' viewBox='0 0 512 512'><title>Time</title><path d='M256 64C150 64 64 150 64 256s86 192 192 192 192-86 192-192S362 64 256 64z' fill='none' stroke='currentColor' stroke-miterlimit='10' stroke-width='32'/><path fill='none' stroke='currentColor' stroke-linecap='round' stroke-linejoin='round' stroke-width='32' d='M256 128v144h96'/></symbol>
<symbol id="person" xmlns='http://www.w3.org/2000/svg' class='ionicon' viewBox='0 0 512 512'><title>Person</title><path d='M332.64 64.58C313.18 43.57 286 32 256 32c-30.16 0-57.43 11.5-76.8 32.38-19.58 21.11-29.12 49.8-26.88 80.78C156.76 206.28 203.27 256 256 256s99.16-49.71 103.67-110.82c2.27-30.7-7.33-59.33-27.03-80.6zM432 480H80a31 31 0 01-24.2-11.13c-6.5-7.77-9.12-18.38-7.18-29.11C57.06 392.94 83.4 353.61 124.8 326c36.78-24.51 83.37-38 131.2-38s94.42 13.5 131.2 38c41.4 27.6 67.74 66.93 76.18 113.75 1.94 10.73-.68 21.34-7.18 29.11A31 31 0 01432 480z'/></symbol>
<symbol version="1.1" id="level" xmlns="http://www.w3.org/2000/svg" xmlns:xlink="http://www.w3.org/1999/xlink" x="0px" y="0px"
	  viewBox="0 0 554.923 554.924" style="enable-background:new 0 0 554.923 554.924;"
	 xml:space="preserve">
<g>
	<g>
		<path d="M352.379,5.549c-7.398-7.399-19.394-7.399-26.793,0l-94.205,94.205c-7.399,7.399-4.915,13.397,5.551,13.397h35.955
			v334.604H118.375c-7.895,0-14.29,6.396-14.29,14.29v78.587c0,7.889,6.395,14.291,14.29,14.291h272.407
			c7.889,0,14.284-6.396,14.284-14.291V113.151h35.961c10.465,0,12.95-5.998,5.551-13.397L352.379,5.549z"/>
	</g>
</g>
<g>
</g>
<g>
</g>
<g>
</g>
<g>
</g>
<g>
</g>
<g>
</g>
<g>
</g>
<g>
</g>
<g>
</g>
<g>
</g>
<g>
</g>
<g>
</g>
<g>
</g>
<g>
</g>
<g>
</g></symbol>
<symbol id="arrow-down"
xmlns='http://www.w3.org/2000/svg' class='ionicon' viewBox='0 0 512 512'><title>Arrow Down</title><path fill='none' stroke='currentColor' stroke-linecap='round' stroke-linejoin='round' stroke-width='48' d='M112 268l144 144 144-144M256 392V100'/>
</symbol>
</svg>