<svg id="Capa_1" enable-background="new 0 0 512 512" height="512" viewBox="0 0 512 512" width="512" xmlns="http://www.w3.org/2000/svg"><g><path d="m376 80c-24.813 0-45 20.187-45 45v37.58c-4.695-1.665-9.742-2.58-15-2.58s-10.305.915-15 2.58v-117.58c0-24.813-20.187-45-45-45-20.718 0-38.211 14.075-43.421 33.164-5.133-2.041-10.727-3.164-16.579-3.164-24.813 0-45 20.187-45 45v126.509c-34.192 6.968-60 37.272-60 73.491v72c0 90.981 74.019 165 165 165s165-74.019 165-165v-222c0-24.813-20.187-45-45-45zm-60 110c8.271 0 15 6.729 15 15v60c0 8.271-6.729 15-15 15s-15-6.729-15-15v-60c0-8.271 6.729-15 15-15zm-60-160c8.271 0 15 6.729 15 15v155.363c-1.634-.235-3.302-.363-5-.363h-25v-155c0-8.271 6.729-15 15-15zm-60 30c8.271 0 15 6.729 15 15v125h-30v-125c0-8.271 6.729-15 15-15zm195 287c0 74.439-60.561 135-135 135s-135-60.561-135-135v-72c0-24.813 20.187-45 45-45h100c2.757 0 5 2.243 5 5 0 13.785-11.215 25-25 25h-80c-8.284 0-15 6.716-15 15v30c0 7.049 4.908 13.147 11.794 14.653 34.24 7.491 48.206 23.525 48.206 55.347 0 8.284 6.716 15 15 15s15-6.716 15-15c0-23.393-6.299-42.438-18.721-56.607-9.913-11.306-23.485-19.533-41.279-24.977v-3.416h65c10.377 0 20.09-2.891 28.382-7.907 6.743 16.359 22.854 27.907 41.618 27.907 24.813 0 45-20.187 45-45v-140c0-8.271 6.729-15 15-15s15 6.729 15 15z"/></g></svg>