<svg id="Capa_1" enable-background="new 0 0 512 512" height="512" viewBox="0 0 512 512" width="512" xmlns="http://www.w3.org/2000/svg"><g><path d="m301 181c0-33.645-19.767-60-45-60s-45 26.355-45 60 19.767 60 45 60 45-26.355 45-60zm-45 30c-6.116 0-15-11.687-15-30s8.884-30 15-30 15 11.687 15 30-8.884 30-15 30z"/><path d="m136 362c-41.355 0-75 33.645-75 75s33.645 75 75 75c31.377 0 93.81-39.59 120-56.922 26.185 17.329 88.622 56.922 120 56.922 41.355 0 75-33.645 75-75s-33.645-75-75-75c-12.585 0-30.604 5.989-54.689 18.216-3.525-11.883-5.311-23.008-5.311-33.216 0-8.456 1.23-17.995 3.511-27.471 66.44-23.947 101.489-66.53 101.489-123.529 0-25.863-11.426-51.087-34.93-77.113-19.186-21.244-44.061-40.402-66.007-57.305-15.318-11.797-30.033-20.794-40.671-31.164-27.886-35.065-18.979-24.654-23.392-30.418-4.333 5.671 3.796-3.541-22.525 29.331-10.08 9.744-24.331 18.355-39.169 29.754-46.026 35.358-103.306 79.363-103.306 136.915 0 56.999 35.049 99.582 101.489 123.529 2.281 9.476 3.511 19.015 3.511 27.471 0 10.208-1.786 21.333-5.311 33.216-24.085-12.227-42.104-18.216-54.689-18.216zm0 120c-24.813 0-45-20.187-45-45s20.187-45 45-45c16.383 0 59.14 23.411 92.876 45-33.736 21.589-76.493 45-92.876 45zm285-45c0 24.813-20.187 45-45 45-16.383 0-59.14-23.411-92.876-45 33.736-21.589 76.493-45 92.876-45 24.813 0 45 20.187 45 45zm-207.282-327.935c16.945-29.578 40.102-57.636 42.196-59.714 3.695 3.756 25.676 30.578 42.368 59.714 26.173 45.685 35.81 82.621 27.134 104.004-7.518 18.534-30.873 27.931-69.416 27.931s-61.898-9.397-69.416-27.93c-8.676-21.384.961-58.32 27.134-104.005zm-92.718 86.935c0-31.547 27.63-61.049 58.503-86.939-17.297 33.205-26.044 62.033-26.044 85.992 0 56.219 46.309 75.947 102.541 75.947 56.208 0 102.541-19.713 102.541-75.947 0-23.718-8.566-52.205-25.519-84.989 31.121 25.899 57.978 54.387 57.978 85.936 0 78.778-91.148 97.353-96.005 100.111-.862 3.585-8.995 25.298-8.995 50.889 0 14.907 2.857 30.982 8.498 47.928-15.895 9.277-29.975 18.353-38.498 23.994-8.523-5.64-22.603-14.717-38.498-23.994 5.641-16.946 8.498-33.021 8.498-47.928 0-25.616-8.124-47.266-8.995-50.889-4.897-2.781-96.005-21.45-96.005-100.111z"/></g></svg>